<svg width="1916" height="1274" xmlns="http://www.w3.org/2000/svg" xmlns:xlink="http://www.w3.org/1999/xlink" overflow="hidden"><defs><clipPath id="clip0"><rect x="0" y="0" width="1916" height="1274"/></clipPath></defs><g clip-path="url(#clip0)"><rect x="0" y="0" width="1916" height="1274.44" fill="#FFFFFF"/><rect x="1292.5" y="624.718" width="522" height="42.0146" stroke="#2F528F" stroke-width="1.33322" stroke-miterlimit="8" fill="#F71111" fill-opacity="0.411765"/><text font-family="Calibri,Calibri_MSFontService,Arial" font-weight="400" font-size="24" transform="matrix(1 0 0 1.00035 1326.2 653)">“Probeer het over een aantal dagen nogmaals”</text><path d="M32.5 56.5197 230.5 56.5197 251.5 77.527 230.5 98.5343 32.5 98.5343Z" stroke="#2F528F" stroke-width="1.33322" stroke-miterlimit="8" fill="#4472C4" fill-rule="evenodd"/><text fill="#FFFFFF" font-family="Calibri,Calibri_MSFontService,Arial" font-weight="400" font-size="24" transform="matrix(1 0 0 1.00035 88.3465 85)">Geen BSN</text><rect x="376.5" y="105.537" width="374" height="42.0147" stroke="#2F528F" stroke-width="1.33322" stroke-miterlimit="8" fill="#F71111" fill-opacity="0.411765"/><text font-family="Calibri,Calibri_MSFontService,Arial" font-weight="400" font-size="24" transform="matrix(1 0 0 1.00035 440.574 133)">“U moet zich inschrijven”</text><path d="M216.5 56.5197 431.5 56.5197 452.5 77.527 431.5 98.5343 216.5 98.5343 237.5 77.527Z" stroke="#2F528F" stroke-width="1.33322" stroke-miterlimit="8" fill="#F3F6FB" fill-rule="evenodd"/><text font-family="Calibri,Calibri_MSFontService,Arial" font-weight="400" font-size="24" transform="matrix(1 0 0 1.00035 261.047 85)">BSN verplicht ?</text><path d="M251.5 105.537 389.5 105.537 410.5 126.544 389.5 147.551 251.5 147.551Z" stroke="#2F528F" stroke-width="1.33322" stroke-miterlimit="8" fill="#E7E6E6" fill-rule="evenodd"/><text font-family="Calibri,Calibri_MSFontService,Arial" font-weight="400" font-size="24" transform="matrix(1 0 0 1.00035 315.758 133)">Ja</text><rect x="376.5" y="152.553" width="374" height="41.0143" stroke="#2F528F" stroke-width="1.33322" stroke-miterlimit="8" fill="#FFF2CC" fill-opacity="0.411765"/><text font-family="Calibri,Calibri_MSFontService,Arial" font-weight="400" font-size="24" transform="matrix(1 0 0 1.00035 422.732 180)">Terug naar eIDAS koppelpunt</text><path d="M251.5 152.553 390 152.553 410.5 173.06 390 193.568 251.5 193.568Z" stroke="#2F528F" stroke-width="1.33322" stroke-miterlimit="8" fill="#E7E6E6" fill-rule="evenodd"/><text font-family="Calibri,Calibri_MSFontService,Arial" font-weight="400" font-size="24" transform="matrix(1 0 0 1.00035 305.759 180)">Nee</text><path d="M32.5 204.571 230.5 204.571 251.5 225.579 230.5 246.586 32.5 246.586Z" stroke="#2F528F" stroke-width="1.33322" stroke-miterlimit="8" fill="#4472C4" fill-rule="evenodd"/><text fill="#FFFFFF" font-family="Calibri,Calibri_MSFontService,Arial" font-weight="400" font-size="24" transform="matrix(1 0 0 1.00035 107.928 233)">1 BSN</text><rect x="727.5" y="532.686" width="325" height="41.0143" stroke="#2F528F" stroke-width="1.33322" stroke-miterlimit="8" fill="#A9D18E" fill-opacity="0.411765"/><text font-family="Calibri,Calibri_MSFontService,Arial" font-weight="400" font-size="24" transform="matrix(1 0 0 1.00035 796.776 561)">Koppeling geslaagd</text><path d="M216.5 204.571 530.5 204.571 551.5 225.579 530.5 246.586 216.5 246.586 237.5 225.579Z" stroke="#2F528F" stroke-width="1.33322" stroke-miterlimit="8" fill="#F3F6FB" fill-rule="evenodd"/><text font-family="Calibri,Calibri_MSFontService,Arial" font-weight="400" font-size="24" transform="matrix(1 0 0 1.00035 266.197 233)">Vraag gebruiker om BSN</text><path d="M492.5 532.686 737 532.686 757.5 553.193 737 573.7 492.5 573.7Z" stroke="#2F528F" stroke-width="1.33322" stroke-miterlimit="8" fill="#E7E6E6" fill-rule="evenodd"/><text font-family="Calibri,Calibri_MSFontService,Arial" font-weight="400" font-size="24" transform="matrix(1 0 0 1.00035 534.755 561)">Voornamen gelijk</text><path d="M251.5 438.653 535.5 438.653 556.5 459.66 535.5 480.668 251.5 480.668Z" stroke="#2F528F" stroke-width="1.33322" stroke-miterlimit="8" fill="#E7E6E6" fill-rule="evenodd"/><text font-family="Calibri,Calibri_MSFontService,Arial" font-weight="400" font-size="24" transform="matrix(1 0 0 1.00035 294.417 467)">Geen BSN opgegeven</text><path d="M659.5 624.718 796.5 624.718 817.5 645.725 796.5 666.732 659.5 666.732Z" stroke="#2F528F" stroke-width="1.33322" stroke-miterlimit="8" fill="#E7E6E6" fill-rule="evenodd"/><text font-family="Calibri,Calibri_MSFontService,Arial" font-weight="400" font-size="24" transform="matrix(1 0 0 1.00035 723.068 653)">Ja</text><path d="M534.5 438.653 848.5 438.653 869.5 459.66 848.5 480.668 534.5 480.668 555.5 459.66Z" stroke="#2F528F" stroke-width="1.33322" stroke-miterlimit="8" fill="#F3F6FB" fill-rule="evenodd"/><text font-family="Calibri,Calibri_MSFontService,Arial" font-weight="400" font-size="24" transform="matrix(1 0 0 1.00035 578.813 467)">Verifiëren laatste 3 cijfers</text><path d="M492.5 578.702 736.5 578.702 757.5 599.709 736.5 620.716 492.5 620.716Z" stroke="#2F528F" stroke-width="1.33322" stroke-miterlimit="8" fill="#E7E6E6" fill-rule="evenodd"/><text font-family="Calibri,Calibri_MSFontService,Arial" font-weight="400" font-size="24" transform="matrix(1 0 0 1.00035 522.173 607)">Voornamen ongelijk</text><path d="M735.5 578.702 1053.5 578.702 1074.5 599.709 1053.5 620.716 735.5 620.716 756.5 599.709Z" stroke="#2F528F" stroke-width="1.33322" stroke-miterlimit="8" fill="#F3F6FB" fill-rule="evenodd"/><text font-family="Calibri,Calibri_MSFontService,Arial" font-weight="400" font-size="24" transform="matrix(1 0 0 1.00035 834.301 607)">BSN verplicht?</text><rect x="526.5" y="251.588" width="325" height="42.0147" stroke="#2F528F" stroke-width="1.33322" stroke-miterlimit="8" fill="#A9D18E" fill-opacity="0.411765"/><text font-family="Calibri,Calibri_MSFontService,Arial" font-weight="400" font-size="24" transform="matrix(1 0 0 1.00035 595.401 280)">Koppeling geslaagd</text><path d="M251.5 251.588 535.5 251.588 556.5 272.595 535.5 293.602 251.5 293.602Z" stroke="#2F528F" stroke-width="1.33322" stroke-miterlimit="8" fill="#E7E6E6" fill-rule="evenodd"/><text font-family="Calibri,Calibri_MSFontService,Arial" font-weight="400" font-size="24" transform="matrix(1 0 0 1.00035 308.629 280)">BSN komt overeen</text><path d="M791.5 624.718 1142.5 624.718 1163.5 645.725 1142.5 666.732 791.5 666.732 812.5 645.725Z" stroke="#2F528F" stroke-width="1.33322" stroke-miterlimit="8" fill="#F3F6FB" fill-rule="evenodd"/><text font-family="Calibri,Calibri_MSFontService,Arial" font-weight="400" font-size="24" transform="matrix(1 0 0 1.00035 826.576 653)">Ophalen aanvullende gegevens</text><path d="M1140.5 624.718 1294.5 624.718 1315.5 645.725 1294.5 666.732 1140.5 666.732 1161.5 645.725Z" stroke="#2F528F" stroke-width="1.33322" stroke-miterlimit="8" fill="#F3F6FB" fill-rule="evenodd"/><text font-family="Calibri,Calibri_MSFontService,Arial" font-weight="400" font-size="24" transform="matrix(1 0 0 1.00035 1173.93 653)">Handmatig</text><rect x="1293.5" y="671.734" width="521" height="41.0143" stroke="#2F528F" stroke-width="1.33322" stroke-miterlimit="8" fill="#FFF2CC" fill-opacity="0.411765"/><text font-family="Calibri,Calibri_MSFontService,Arial" font-weight="400" font-size="24" transform="matrix(1 0 0 1.00035 1413.26 700)">Terug naar eIDAS koppelpunt</text><path d="M659.5 671.734 797 671.734 817.5 692.241 797 712.748 659.5 712.748Z" stroke="#2F528F" stroke-width="1.33322" stroke-miterlimit="8" fill="#E7E6E6" fill-rule="evenodd"/><text font-family="Calibri,Calibri_MSFontService,Arial" font-weight="400" font-size="24" transform="matrix(1 0 0 1.00035 713.069 700)">Nee</text><path d="M791.5 671.734 1143 671.734 1163.5 692.241 1143 712.748 791.5 712.748 812 692.241Z" stroke="#2F528F" stroke-width="1.33322" stroke-miterlimit="8" fill="#F3F6FB" fill-rule="evenodd"/><text font-family="Calibri,Calibri_MSFontService,Arial" font-weight="400" font-size="24" transform="matrix(1 0 0 1.00035 826.75 700)">Ophalen aanvullende gegevens</text><path d="M1140.5 671.734 1295 671.734 1315.5 692.241 1295 712.748 1140.5 712.748 1161 692.241Z" stroke="#2F528F" stroke-width="1.33322" stroke-miterlimit="8" fill="#F3F6FB" fill-rule="evenodd"/><text font-family="Calibri,Calibri_MSFontService,Arial" font-weight="400" font-size="24" transform="matrix(1 0 0 1.00035 1174.28 700)">Handmatig</text><path d="M410.5 485.669 608.5 485.669 629.5 506.677 608.5 527.684 410.5 527.684Z" stroke="#2F528F" stroke-width="1.33322" stroke-miterlimit="8" fill="#E7E6E6" fill-rule="evenodd"/><text font-family="Calibri,Calibri_MSFontService,Arial" font-weight="400" font-size="24" transform="matrix(1 0 0 1.00035 459.347 514)">Bevestiging</text><path d="M605.5 485.669 898.5 485.669 919.5 506.677 898.5 527.684 605.5 527.684 626.5 506.677Z" stroke="#2F528F" stroke-width="1.33322" stroke-miterlimit="8" fill="#F3F6FB" fill-rule="evenodd"/><text font-family="Calibri,Calibri_MSFontService,Arial" font-weight="400" font-size="24" transform="matrix(1 0 0 1.00035 650.216 514)">Voornamen vergelijken</text><path d="M411.5 717.75 606 717.75 626.5 738.257 606 758.764 411.5 758.764Z" stroke="#2F528F" stroke-width="1.33322" stroke-miterlimit="8" fill="#E7E6E6" fill-rule="evenodd"/><text font-family="Calibri,Calibri_MSFontService,Arial" font-weight="400" font-size="24" transform="matrix(1 0 0 1.00035 429.889 746)">Geen bevestiging</text><path d="M605.5 717.75 899 717.75 919.5 738.257 899 758.764 605.5 758.764 626 738.257Z" stroke="#2F528F" stroke-width="1.33322" stroke-miterlimit="8" fill="#F3F6FB" fill-rule="evenodd"/><text font-family="Calibri,Calibri_MSFontService,Arial" font-weight="400" font-size="24" transform="matrix(1 0 0 1.00035 691.783 746)">BSN verplicht?</text><rect x="652.5" y="763.766" width="373" height="41.0143" stroke="#2F528F" stroke-width="1.33322" stroke-miterlimit="8" fill="#F71111" fill-opacity="0.411765"/><text font-family="Calibri,Calibri_MSFontService,Arial" font-weight="400" font-size="24" transform="matrix(1 0 0 1.00035 715.722 792)">“U moet zich inschrijven”</text><path d="M526.5 763.766 665 763.766 685.5 784.273 665 804.781 526.5 804.781Z" stroke="#2F528F" stroke-width="1.33322" stroke-miterlimit="8" fill="#E7E6E6" fill-rule="evenodd"/><text font-family="Calibri,Calibri_MSFontService,Arial" font-weight="400" font-size="24" transform="matrix(1 0 0 1.00035 590.906 792)">Ja</text><rect x="652.5" y="809.782" width="373" height="41.0143" stroke="#2F528F" stroke-width="1.33322" stroke-miterlimit="8" fill="#FFF2CC" fill-opacity="0.411765"/><text font-family="Calibri,Calibri_MSFontService,Arial" font-weight="400" font-size="24" transform="matrix(1 0 0 1.00035 697.88 838)">Terug naar eIDAS koppelpunt</text><path d="M526.5 809.782 665 809.782 685.5 830.289 665 850.797 526.5 850.797Z" stroke="#2F528F" stroke-width="1.33322" stroke-miterlimit="8" fill="#E7E6E6" fill-rule="evenodd"/><text font-family="Calibri,Calibri_MSFontService,Arial" font-weight="400" font-size="24" transform="matrix(1 0 0 1.00035 580.907 838)">Nee</text><path d="M32.5 864.802 230.5 864.802 251.5 885.809 230.5 906.816 32.5 906.816Z" stroke="#2F528F" stroke-width="1.33322" stroke-miterlimit="8" fill="#4472C4" fill-rule="evenodd"/><text fill="#FFFFFF" font-family="Calibri,Calibri_MSFontService,Arial" font-weight="400" font-size="24" transform="matrix(1 0 0 1.00035 101.928 893)">&gt;1 BSN</text><path d="M216.5 864.802 530.5 864.802 551.5 885.809 530.5 906.816 216.5 906.816 237.5 885.809Z" stroke="#2F528F" stroke-width="1.33322" stroke-miterlimit="8" fill="#F3F6FB" fill-rule="evenodd"/><text font-family="Calibri,Calibri_MSFontService,Arial" font-weight="400" font-size="24" transform="matrix(1 0 0 1.00035 266.197 893)">Vraag gebruiker om BSN</text><path d="M251.5 958.834 535.5 958.834 556.5 979.842 535.5 1000.85 251.5 1000.85Z" stroke="#2F528F" stroke-width="1.33322" stroke-miterlimit="8" fill="#E7E6E6" fill-rule="evenodd"/><text font-family="Calibri,Calibri_MSFontService,Arial" font-weight="400" font-size="24" transform="matrix(1 0 0 1.00035 287.111 987)">BSN komt niet overeen</text><rect x="526.5" y="911.818" width="325" height="42.0146" stroke="#2F528F" stroke-width="1.33322" stroke-miterlimit="8" fill="#A9D18E" fill-opacity="0.411765"/><text font-family="Calibri,Calibri_MSFontService,Arial" font-weight="400" font-size="24" transform="matrix(1 0 0 1.00035 595.4 940)">Koppeling geslaagd</text><path d="M251.5 911.818 535.5 911.818 556.5 932.825 535.5 953.833 251.5 953.833Z" stroke="#2F528F" stroke-width="1.33322" stroke-miterlimit="8" fill="#E7E6E6" fill-rule="evenodd"/><text font-family="Calibri,Calibri_MSFontService,Arial" font-weight="400" font-size="24" transform="matrix(1 0 0 1.00035 308.629 940)">BSN komt overeen</text><path d="M534.5 958.834 848.5 958.834 869.5 979.842 848.5 1000.85 534.5 1000.85 555.5 979.842Z" stroke="#2F528F" stroke-width="1.33322" stroke-miterlimit="8" fill="#F3F6FB" fill-rule="evenodd"/><text font-family="Calibri,Calibri_MSFontService,Arial" font-weight="400" font-size="24" transform="matrix(1 0 0 1.00035 631.075 987)">BSN verplicht?</text><rect x="592.5" y="1005.85" width="373" height="41.0143" stroke="#2F528F" stroke-width="1.33322" stroke-miterlimit="8" fill="#F71111" fill-opacity="0.411765"/><text font-family="Calibri,Calibri_MSFontService,Arial" font-weight="400" font-size="24" transform="matrix(1 0 0 1.00035 655.907 1034)">“U moet zich inschrijven”</text><path d="M466.5 1005.85 606 1005.85 626.5 1026.36 606 1046.86 466.5 1046.86Z" stroke="#2F528F" stroke-width="1.33322" stroke-miterlimit="8" fill="#E7E6E6" fill-rule="evenodd"/><text font-family="Calibri,Calibri_MSFontService,Arial" font-weight="400" font-size="24" transform="matrix(1 0 0 1.00035 531.091 1034)">Ja</text><rect x="592.5" y="1051.87" width="373" height="42.0146" stroke="#2F528F" stroke-width="1.33322" stroke-miterlimit="8" fill="#FFF2CC" fill-opacity="0.411765"/><text font-family="Calibri,Calibri_MSFontService,Arial" font-weight="400" font-size="24" transform="matrix(1 0 0 1.00035 638.065 1081)">Terug naar eIDAS koppelpunt</text><path d="M466.5 1051.87 605.5 1051.87 626.5 1072.87 605.5 1093.88 466.5 1093.88Z" stroke="#2F528F" stroke-width="1.33322" stroke-miterlimit="8" fill="#E7E6E6" fill-rule="evenodd"/><text font-family="Calibri,Calibri_MSFontService,Arial" font-weight="400" font-size="24" transform="matrix(1 0 0 1.00035 521.092 1081)">Nee</text><rect x="1051.5" y="1144.9" width="522" height="42.0146" stroke="#2F528F" stroke-width="1.33322" stroke-miterlimit="8" fill="#F71111" fill-opacity="0.411765"/><text font-family="Calibri,Calibri_MSFontService,Arial" font-weight="400" font-size="24" transform="matrix(1 0 0 1.00035 1085.03 1174)">“Probeer het over een aantal dagen nogmaals”</text><path d="M418.5 1144.9 554.5 1144.9 575.5 1165.91 554.5 1186.91 418.5 1186.91Z" stroke="#2F528F" stroke-width="1.33322" stroke-miterlimit="8" fill="#E7E6E6" fill-rule="evenodd"/><text font-family="Calibri,Calibri_MSFontService,Arial" font-weight="400" font-size="24" transform="matrix(1 0 0 1.00035 481.718 1174)">Ja</text><path d="M251.5 1098.88 535.5 1098.88 556.5 1119.89 535.5 1140.9 251.5 1140.9Z" stroke="#2F528F" stroke-width="1.33322" stroke-miterlimit="8" fill="#E7E6E6" fill-rule="evenodd"/><text font-family="Calibri,Calibri_MSFontService,Arial" font-weight="400" font-size="24" transform="matrix(1 0 0 1.00035 294.417 1127)">Geen BSN opgegeven</text><path d="M534.5 1098.88 812.5 1098.88 833.5 1119.89 812.5 1140.9 534.5 1140.9 555.5 1119.89Z" stroke="#2F528F" stroke-width="1.33322" stroke-miterlimit="8" fill="#F3F6FB" fill-rule="evenodd"/><text font-family="Calibri,Calibri_MSFontService,Arial" font-weight="400" font-size="24" transform="matrix(1 0 0 1.00035 612.938 1127)">BSN verplicht?</text><path d="M550.5 1144.9 898.5 1144.9 919.5 1165.91 898.5 1186.91 550.5 1186.91 571.5 1165.91Z" stroke="#2F528F" stroke-width="1.33322" stroke-miterlimit="8" fill="#F3F6FB" fill-rule="evenodd"/><text font-family="Calibri,Calibri_MSFontService,Arial" font-weight="400" font-size="24" transform="matrix(1 0 0 1.00035 583.867 1174)">Ophalen aanvullende gegevens</text><path d="M899.5 1144.9 1052.5 1144.9 1073.5 1165.91 1052.5 1186.91 899.5 1186.91 920.5 1165.91Z" stroke="#2F528F" stroke-width="1.33322" stroke-miterlimit="8" fill="#F3F6FB" fill-rule="evenodd"/><text font-family="Calibri,Calibri_MSFontService,Arial" font-weight="400" font-size="24" transform="matrix(1 0 0 1.00035 932.582 1174)">Handmatig</text><rect x="1051.5" y="1191.92" width="522" height="41.0143" stroke="#2F528F" stroke-width="1.33322" stroke-miterlimit="8" fill="#FFF2CC" fill-opacity="0.411765"/><text font-family="Calibri,Calibri_MSFontService,Arial" font-weight="400" font-size="24" transform="matrix(1 0 0 1.00035 1171.91 1220)">Terug naar eIDAS koppelpunt</text><path d="M418.5 1191.92 555 1191.92 575.5 1212.42 555 1232.93 418.5 1232.93Z" stroke="#2F528F" stroke-width="1.33322" stroke-miterlimit="8" fill="#E7E6E6" fill-rule="evenodd"/><text font-family="Calibri,Calibri_MSFontService,Arial" font-weight="400" font-size="24" transform="matrix(1 0 0 1.00035 471.892 1220)">Nee</text><path d="M550.5 1191.92 899 1191.92 919.5 1212.42 899 1232.93 550.5 1232.93 571 1212.42Z" stroke="#2F528F" stroke-width="1.33322" stroke-miterlimit="8" fill="#F3F6FB" fill-rule="evenodd"/><text font-family="Calibri,Calibri_MSFontService,Arial" font-weight="400" font-size="24" transform="matrix(1 0 0 1.00035 584.213 1220)">Ophalen aanvullende gegevens</text><path d="M899.5 1191.92 1054 1191.92 1074.5 1212.42 1054 1232.93 899.5 1232.93 920 1212.42Z" stroke="#2F528F" stroke-width="1.33322" stroke-miterlimit="8" fill="#F3F6FB" fill-rule="evenodd"/><text font-family="Calibri,Calibri_MSFontService,Arial" font-weight="400" font-size="24" transform="matrix(1 0 0 1.00035 932.928 1220)">Handmatig</text><path d="M251.5 298.604 535.5 298.604 556.5 319.612 535.5 340.619 251.5 340.619Z" stroke="#2F528F" stroke-width="1.33322" stroke-miterlimit="8" fill="#E7E6E6" fill-rule="evenodd"/><text font-family="Calibri,Calibri_MSFontService,Arial" font-weight="400" font-size="24" transform="matrix(1 0 0 1.00035 287.111 327)">BSN komt niet overeen</text><path d="M534.5 298.604 848.5 298.604 869.5 319.612 848.5 340.619 534.5 340.619 555.5 319.612Z" stroke="#2F528F" stroke-width="1.33322" stroke-miterlimit="8" fill="#F3F6FB" fill-rule="evenodd"/><text font-family="Calibri,Calibri_MSFontService,Arial" font-weight="400" font-size="24" transform="matrix(1 0 0 1.00035 631.074 327)">BSN verplicht?</text><rect x="592.5" y="344.62" width="373" height="42.0147" stroke="#2F528F" stroke-width="1.33322" stroke-miterlimit="8" fill="#F71111" fill-opacity="0.411765"/><text font-family="Calibri,Calibri_MSFontService,Arial" font-weight="400" font-size="24" transform="matrix(1 0 0 1.00035 655.907 373)">“U moet zich inschrijven”</text><path d="M466.5 344.62 605.5 344.62 626.5 365.627 605.5 386.635 466.5 386.635Z" stroke="#2F528F" stroke-width="1.33322" stroke-miterlimit="8" fill="#E7E6E6" fill-rule="evenodd"/><text font-family="Calibri,Calibri_MSFontService,Arial" font-weight="400" font-size="24" transform="matrix(1 0 0 1.00035 531.091 373)">Ja</text><rect x="592.5" y="391.637" width="373" height="42.0147" stroke="#2F528F" stroke-width="1.33322" stroke-miterlimit="8" fill="#FFF2CC" fill-opacity="0.411765"/><text font-family="Calibri,Calibri_MSFontService,Arial" font-weight="400" font-size="24" transform="matrix(1 0 0 1.00035 638.065 420)">Terug naar eIDAS koppelpunt</text><path d="M466.5 391.637 605.5 391.637 626.5 412.644 605.5 433.651 466.5 433.651Z" stroke="#2F528F" stroke-width="1.33322" stroke-miterlimit="8" fill="#E7E6E6" fill-rule="evenodd"/><text font-family="Calibri,Calibri_MSFontService,Arial" font-weight="400" font-size="24" transform="matrix(1 0 0 1.00035 521.092 420)">Nee</text></g></svg>